<?xml version="1.0" encoding="UTF-8" standalone="no"?>
<!-- Created with Inkscape (http://www.inkscape.org/) -->

<svg
   width="56.074272mm"
   height="56.655361mm"
   viewBox="0 0 56.074272 56.655361"
   version="1.1"
   id="svg1"
   xml:space="preserve"
   xmlns:xlink="http://www.w3.org/1999/xlink"
   xmlns="http://www.w3.org/2000/svg"
   xmlns:svg="http://www.w3.org/2000/svg"><defs
     id="defs1"><linearGradient
       id="linearGradient104"><stop
         style="stop-color:#000000;stop-opacity:1;"
         offset="0"
         id="stop104" /><stop
         style="stop-color:#000000;stop-opacity:0;"
         offset="1"
         id="stop105" /></linearGradient><linearGradient
       xlink:href="#linearGradient104"
       id="linearGradient105"
       x1="165.69579"
       y1="174.3647"
       x2="205.84302"
       y2="174.3647"
       gradientUnits="userSpaceOnUse"
       gradientTransform="matrix(0.87927462,0,0,0.87927462,-61.634653,12.708109)" /></defs><g
     id="layer1"
     transform="translate(-256.16494,-354.65721)"><g
       id="g11"
       transform="matrix(0.75307331,0,0,0.75307331,18.134194,21.717697)"
       style="stroke:#ffffff;stroke-width:0.999903;stroke-dasharray:none;stroke-opacity:1"><path
         id="path1"
         style="display:inline;opacity:1;fill:url(#linearGradient105);fill-opacity:1;stroke:#ffffff;stroke-width:0.999903;stroke-dasharray:none;stroke-opacity:1"
         d="m 119.19128,155.92838 v 20.18836 l -17.48363,10.09417 -17.483616,-10.09417 v -20.18836 l 17.483616,-10.09417 7.58134,4.37708 z" /><g
         id="g118"
         transform="translate(13.788061,-41.736835)"><rect
           style="font-variation-settings:normal;opacity:1;fill:#808080;fill-opacity:1;fill-rule:nonzero;stroke:none;stroke-width:3.05901;stroke-linecap:butt;stroke-linejoin:miter;stroke-miterlimit:4.3;stroke-dasharray:none;stroke-dashoffset:0;stroke-opacity:1;paint-order:markers fill stroke"
           id="rect119"
           width="320.21979"
           height="263.08698"
           x="-205.07005"
           y="292.48572" /><circle
           id="path2"
           style="fill:#000000;stroke:#000000;stroke-width:0.351338"
           cx="-19.549555"
           cy="274.57452"
           r="0.013414595" /><g
           id="g122"><rect
             style="font-variation-settings:normal;opacity:1;fill:#000000;fill-opacity:1;fill-rule:nonzero;stroke:none;stroke-width:0;stroke-linecap:butt;stroke-linejoin:miter;stroke-miterlimit:4.3;stroke-dasharray:none;stroke-dashoffset:0;stroke-opacity:1;paint-order:normal"
             id="rect11"
             width="74.456345"
             height="74.456345"
             x="-18.406107"
             y="293.15277" /><path
             style="fill:#ad89f5;fill-opacity:1;stroke:none;stroke-width:1.14071;stroke-linejoin:miter;stroke-miterlimit:4.3;stroke-dasharray:none;stroke-opacity:1;paint-order:normal"
             d="m 11.454873,334.89648 14.73399,8.50668 v 0 l 7.366812,-4.25324 v 0 l -7.366995,-4.25333 v 0 l 7.366995,-4.25313 v 0 -8.50645 l -14.733624,-8.50646 -14.7336141,8.50646 v 17.01291 l 7.3668121,4.25324 v 0 L 11.45493,326.3904 v 0 l 7.551089,-4.3596 v 0 l 7.366767,4.25298 v 0 l -14.917549,8.61291"
             id="path3-7-0-8" /></g><circle
           id="circle118"
           style="fill:#000000;stroke:#000000;stroke-width:0.351338"
           cx="67.402184"
           cy="274.57452"
           r="0.013414595" /><g
           id="g121"><rect
             style="font-variation-settings:normal;opacity:1;fill:#ffffff;fill-opacity:1;fill-rule:nonzero;stroke:none;stroke-width:0;stroke-linecap:butt;stroke-linejoin:miter;stroke-miterlimit:4.3;stroke-dasharray:none;stroke-dashoffset:0;stroke-opacity:1;paint-order:normal"
             id="rect118"
             width="74.456345"
             height="74.456345"
             x="68.545631"
             y="293.15277" /><path
             style="fill:#ad89f5;fill-opacity:1;stroke:none;stroke-width:1.14071;stroke-linejoin:miter;stroke-miterlimit:4.3;stroke-dasharray:none;stroke-opacity:1;paint-order:normal"
             d="m 98.406612,334.89648 14.733988,8.50668 v 0 l 7.36681,-4.25324 v 0 l -7.367,-4.25333 v 0 l 7.367,-4.25313 v 0 -8.50645 l -14.73362,-8.50646 -14.733614,8.50646 v 17.01291 l 7.366812,4.25324 v 0 l -3.19e-4,-17.01276 v 0 l 7.551091,-4.3596 v 0 l 7.36676,4.25298 v 0 l -14.917544,8.61291"
             id="path118" /></g><path
           style="fill:#ad89f5;fill-opacity:1;stroke:none;stroke-width:2.88244;stroke-linejoin:miter;stroke-miterlimit:4.3;stroke-dasharray:none;stroke-opacity:1;paint-order:normal"
           d="m 320.90531,537.58131 37.23123,21.49547 v 0 l 18.61512,-10.74747 v 0 l -18.61562,-10.74774 v 0 l 18.61562,-10.74721 v 0 -21.49488 l -37.23028,-21.49491 -37.23028,21.49491 v 42.98983 l 18.61517,10.74747 v 0 l -8.1e-4,-42.98944 v 0 l 19.08079,-11.01623 v 0 l 18.61503,10.74682 v 0 l -37.69508,21.76391"
           id="path120" /><g
           id="g123"><rect
             style="font-variation-settings:normal;opacity:1;fill:#000000;fill-opacity:1;fill-rule:nonzero;stroke:none;stroke-width:0;stroke-linecap:butt;stroke-linejoin:miter;stroke-miterlimit:4.3;stroke-dasharray:none;stroke-dashoffset:0;stroke-opacity:1;paint-order:normal"
             id="rect122"
             width="74.456345"
             height="74.456345"
             x="-18.406107"
             y="293.15277" /><path
             style="fill:#ad89f5;fill-opacity:1;stroke:none;stroke-width:1.14071;stroke-linejoin:miter;stroke-miterlimit:4.3;stroke-dasharray:none;stroke-opacity:1;paint-order:normal"
             d="m 11.454873,334.89648 14.73399,8.50668 v 0 l 7.366812,-4.25324 v 0 l -7.366995,-4.25333 v 0 l 7.366995,-4.25313 v 0 -8.50645 l -14.733624,-8.50646 -14.7336141,8.50646 v 17.01291 l 7.3668121,4.25324 v 0 L 11.45493,326.3904 v 0 l 7.551089,-4.3596 v 0 l 7.366767,4.25298 v 0 l -14.917549,8.61291"
             id="path122" /></g></g></g></g></svg>
