<?xml version="1.0" encoding="UTF-8"?>
<svg width="70mm" height="70mm" version="1.1" viewBox="0 0 70 70" xml:space="preserve"
  xmlns="http://www.w3.org/2000/svg">
  <g transform="translate(-329.14 -348.99)">
    <g transform="matrix(2.1565 0 0 2.1565 44.07 140.34)" stroke-width=".46371">
      <path transform="matrix(.75307 0 0 .75307 18.134 21.718)"
        d="m191.7 112.51v17.366a3.6512 3.6512 120 0 1-1.8256 3.162l-15.04 8.6831a3.6512 3.6512 6.6369e-6 0 1-3.6512 0l-15.04-8.6831a3.6512 3.6512 60 0 1-1.8256-3.162v-17.366a3.6512 3.6512 120 0 1 1.8256-3.162l15.04-8.6831a3.6512 3.6512 180 0 1 3.6512-1e-5l15.04 8.6831a3.6512 3.6512 60 0 1 1.8256 3.162z" />
      <path transform="matrix(.75307 0 0 .75307 18.134 21.718)"
        d="m171.79 105.14-4.7484 2.7414c-0.67218 0.38808-0.67222 1.0173-9e-5 1.4055 4.0995 2.3674 8.1992 4.7346 12.299 7.1009 0.67223 0.38798 0.67232 1.0171 1.8e-4 1.4052l-3.138 1.8121a0.81147 0.81147 89.998 0 0 5e-5 1.4055l4.9323 2.8477a2.4342 2.4342 0.0012118 0 0 2.4342 5e-5l2.9539-1.7053a2.434 2.434 120 0 0 1.2171-2.108v-5.6962a2.4341 2.4341 60 0 0-1.2171-2.108l-12.299-7.1009a2.4342 2.4342 180 0 0-2.4342 1e-5zm-9.1616 5.2893-3.1378 1.8116a2.4341 2.4341 120 0 0-1.2171 2.108v14.202a2.4341 2.4341 59.999 0 0 1.2171 2.108l4.9329 2.8478a0.81137 0.81137 150 0 0 1.217-0.70271l-5.7e-4 -14.202a2.4339 2.4339 120 0 1 1.217-2.108l3.1385-1.8117a0.81136 0.81136 90.003 0 0 7e-5 -1.4053l-4.933-2.8484a2.4341 2.4341 0.0013559 0 0-2.4341-5e-5zm9.1615 11.724-2.9539 1.7053a2.434 2.434 120 0 0-1.2171 2.108 1.9958 1.9958 52.423 0 0 1.2171 1.5817l10.321 5.959a2.4341 2.4341 180 0 0 2.4341 0l4.9323-2.8477a0.81138 0.81138 89.999 0 0-2e-5 -1.4054l-12.299-7.1009a2.4343 2.4343 6.8528e-4 0 0-2.4342-2e-5z"
        fill="#fff" style="paint-order:normal" />
    </g>
  </g>
</svg>