<?xml version="1.0" encoding="UTF-8" standalone="no"?>
<svg width="317.5mm" height="166.6875mm" viewBox="0 0 317.5 166.6875" version="1.1" id="svg1"
  xmlns="http://www.w3.org/2000/svg" xmlns:svg="http://www.w3.org/2000/svg">
  <defs id="defs1" />
  <g id="layer1">
    <rect style="fill:#000000;fill-opacity:1;stroke-width:1.353;stroke-miterlimit:4.3;paint-order:markers fill stroke"
      id="rect1" width="317.5" height="166.6875" x="0" y="0" />
    <g transform="matrix(0.85544755,0,0,0.85544755,-84.369459,-244.28559)" id="g3">
      <g transform="matrix(2.1565,0,0,2.1565,-35.87,139.34)" stroke-width="0.46371" id="g2">
        <path transform="matrix(0.75307,0,0,0.75307,18.134,21.718)"
          d="m 191.7,112.51 v 17.366 a 3.6512,3.6512 120 0 1 -1.8256,3.162 l -15.04,8.6831 a 3.6512,3.6512 6.6369e-6 0 1 -3.6512,0 l -15.04,-8.6831 a 3.6512,3.6512 60 0 1 -1.8256,-3.162 V 112.51 a 3.6512,3.6512 120 0 1 1.8256,-3.162 l 15.04,-8.6831 a 3.6512,3.6512 -180 0 1 3.6512,-1e-5 l 15.04,8.6831 a 3.6512,3.6512 60 0 1 1.8256,3.162 z"
          fill="#ffffff" id="path1" />

        <path transform="matrix(0.75307,0,0,0.75307,18.134,21.718)"
          d="m 171.79,105.14 -4.7484,2.7414 c -0.67218,0.38808 -0.67222,1.0173 -9e-5,1.4055 4.0995,2.3674 8.1992,4.7346 12.299,7.1009 0.67223,0.38798 0.67232,1.0171 1.8e-4,1.4052 l -3.138,1.8121 a 0.81147,0.81147 89.998 0 0 5e-5,1.4055 l 4.9323,2.8477 a 2.4342,2.4342 0.0012118 0 0 2.4342,5e-5 l 2.9539,-1.7053 a 2.434,2.434 120 0 0 1.2171,-2.108 v -5.6962 a 2.4341,2.4341 60 0 0 -1.2171,-2.108 l -12.299,-7.1009 a 2.4342,2.4342 -180 0 0 -2.4342,1e-5 z m -9.1616,5.2893 -3.1378,1.8116 a 2.4341,2.4341 120 0 0 -1.2171,2.108 v 14.202 a 2.4341,2.4341 59.999 0 0 1.2171,2.108 l 4.9329,2.8478 a 0.81137,0.81137 150 0 0 1.217,-0.70271 l -5.7e-4,-14.202 a 2.4339,2.4339 120 0 1 1.217,-2.108 l 3.1385,-1.8117 a 0.81136,0.81136 90.003 0 0 7e-5,-1.4053 l -4.933,-2.8484 a 2.4341,2.4341 0.0013559 0 0 -2.4341,-5e-5 z m 9.1615,11.724 -2.9539,1.7053 a 2.434,2.434 120 0 0 -1.2171,2.108 1.9958,1.9958 52.423 0 0 1.2171,1.5817 l 10.321,5.959 a 2.4341,2.4341 -180 0 0 2.4341,0 l 4.9323,-2.8477 a 0.81138,0.81138 89.999 0 0 -2e-5,-1.4054 l -12.299,-7.1009 a 2.4343,2.4343 6.8528e-4 0 0 -2.4342,-2e-5 z"
          style="paint-order:normal" id="path2" />

      </g>

    </g>
  </g>
</svg>